<svg width="84" height="37" viewBox="0 0 84 37" fill="none" xmlns="http://www.w3.org/2000/svg">
<path d="M8.90625 0.28125C8.8125 0.984375 8.75 1.70313 8.71875 2.4375C8.6875 3.15625 8.67188 3.90625 8.67188 4.6875C8.67188 6.07812 8.74219 7.5 8.88281 8.95312C9.02344 10.3906 9.23438 11.8281 9.51562 13.2656C9.79688 14.7031 10.1484 16.1172 10.5703 17.5078C10.9922 18.8828 11.4766 20.1953 12.0234 21.4453C12.5859 22.6953 13.2109 23.8594 13.8984 24.9375C14.6016 26.0156 15.375 26.9688 16.2188 27.7969C17.1406 26.8438 17.8828 25.75 18.4453 24.5156C19.0234 23.2656 19.4688 21.9688 19.7812 20.625C20.1094 19.2656 20.3281 17.8984 20.4375 16.5234C20.5469 15.1484 20.6094 13.8438 20.625 12.6094H25.7812C25.7812 13.8438 25.8359 15.1406 25.9453 16.5C26.0547 17.8594 26.2656 19.2109 26.5781 20.5547C26.8906 21.8828 27.3281 23.1719 27.8906 24.4219C28.4531 25.6562 29.1875 26.7656 30.0938 27.75C31.4062 26.3281 32.5391 24.7188 33.4922 22.9219C34.4453 21.1094 35.2344 19.2109 35.8594 17.2266C36.4844 15.2422 36.9453 13.2109 37.2422 11.1328C37.5391 9.05469 37.6875 7.01562 37.6875 5.01562C37.6875 3.34375 37.5938 1.73438 37.4062 0.1875C38.7812 0.25 40.0078 0.34375 41.0859 0.46875C42.1797 0.59375 43.125 0.71875 43.9219 0.84375C44.8281 1 45.6406 1.15625 46.3594 1.3125V7.21875C45.8438 7.04688 45.3359 6.91406 44.8359 6.82031C44.3516 6.71094 43.875 6.59375 43.4062 6.46875C43.4062 9.82812 43.0781 12.9453 42.4219 15.8203C41.7812 18.6797 40.8828 21.3516 39.7266 23.8359C38.5703 26.3203 37.1875 28.625 35.5781 30.75C33.9688 32.875 32.2031 34.8594 30.2812 36.7031C28.9062 35.375 27.625 33.8906 26.4375 32.25C25.2656 30.6094 24.1875 28.75 23.2031 26.6719C22.1875 28.75 21.0781 30.6172 19.875 32.2734C18.6875 33.9297 17.4062 35.4219 16.0312 36.75C14.125 34.9062 12.3828 32.9219 10.8047 30.7969C9.22656 28.6719 7.875 26.3672 6.75 23.8828C5.625 21.3984 4.75 18.7266 4.125 15.8672C3.5 12.9922 3.1875 9.875 3.1875 6.51562C2.625 6.64062 2.07812 6.75781 1.54688 6.86719C1.03125 6.96094 0.515625 7.09375 0 7.26562V1.3125C0 1.32813 0.203125 1.29687 0.609375 1.21875C1.03125 1.14063 1.625 1.04688 2.39062 0.9375C3.17188 0.8125 4.10938 0.695313 5.20312 0.585938C6.29688 0.460938 7.53125 0.359375 8.90625 0.28125ZM66.0938 0C68.5 0 70.7656 0.210938 72.8906 0.632812C75.0156 1.05469 76.875 1.64062 78.4688 2.39062C80.0625 3.14062 81.3203 4.04688 82.2422 5.10938C83.1641 6.15625 83.625 7.3125 83.625 8.57812V27.2344C83.625 28.5 83.1641 29.6641 82.2422 30.7266C81.3203 31.7734 80.0625 32.6719 78.4688 33.4219C76.875 34.1719 75.0156 34.7578 72.8906 35.1797C70.7656 35.6016 68.5 35.8125 66.0938 35.8125C64.75 35.8125 63.375 35.7656 61.9688 35.6719C60.5625 35.5625 59.1953 35.4297 57.8672 35.2734C56.5547 35.1016 55.3203 34.9062 54.1641 34.6875C53.0078 34.4688 52.0156 34.2344 51.1875 33.9844V1.82812C52.0156 1.57812 53.0078 1.34375 54.1641 1.125C55.3203 0.90625 56.5547 0.71875 57.8672 0.5625C59.1953 0.390625 60.5625 0.257812 61.9688 0.164062C63.375 0.0546875 64.75 0 66.0938 0ZM66.1875 5.29688C64.7656 5.29688 63.5312 5.34375 62.4844 5.4375C61.4375 5.51562 60.5391 5.625 59.7891 5.76562C59.0391 5.89062 58.4141 6.03125 57.9141 6.1875C57.4297 6.32812 57.0312 6.45312 56.7188 6.5625V29.25C57.0312 29.375 57.4297 29.5078 57.9141 29.6484C58.4141 29.7891 59.0391 29.9297 59.7891 30.0703C60.5391 30.1953 61.4375 30.3047 62.4844 30.3984C63.5312 30.4766 64.7656 30.5156 66.1875 30.5156C67.9375 30.5156 69.5078 30.375 70.8984 30.0938C72.3047 29.8125 73.4844 29.4375 74.4375 28.9688C75.4062 28.5 76.1484 27.9609 76.6641 27.3516C77.1797 26.7266 77.4375 26.0781 77.4375 25.4062V10.4062C77.4375 9.73438 77.1797 9.09375 76.6641 8.48438C76.1484 7.85938 75.4062 7.3125 74.4375 6.84375C73.4844 6.375 72.3047 6 70.8984 5.71875C69.5078 5.4375 67.9375 5.29688 66.1875 5.29688Z" fill="#34547A"/>
</svg>
